<?xml version="1.0" encoding="UTF-8" standalone="no"?>
<!-- Created with Inkscape (http://www.inkscape.org/) -->

<svg
   width="165.46706mm"
   height="112.34499mm"
   viewBox="0 0 165.46706 112.34499"
   version="1.1"
   id="svg1"
   xml:space="preserve"
   xmlns="http://www.w3.org/2000/svg"
   xmlns:svg="http://www.w3.org/2000/svg"><defs
     id="defs1" /><g
     id="layer1"
     transform="translate(-20.493849,-68.800672)"><path
       style="fill:#000000"
       d="m 99.832803,181.11306 c -8.365383,-0.53439 -16.715438,-2.5011 -24.077836,-5.6711 -0.738123,-0.31781 -1.732814,-0.74491 -2.210424,-0.9491 -1.079654,-0.46158 -5.662787,-2.81705 -6.631273,-3.40809 -0.217095,-0.13249 -0.856539,-0.51183 -1.420987,-0.84299 -2.452307,-1.43874 -7.700713,-5.0898 -9.772832,-6.79848 -4.194661,-3.45895 -9.20105,-8.35999 -11.857748,-11.60824 -0.303933,-0.37161 -0.913856,-1.10818 -1.355385,-1.63683 -0.441528,-0.52864 -1.40533,-1.77823 -2.141781,-2.77687 -1.201027,-1.62861 -1.619972,-2.23006 -3.13435,-4.49979 -2.528577,-3.7898 -5.467257,-9.51852 -7.320674,-14.27106 -1.79048,-4.59116 -2.897083,-8.5357 -3.880697,-13.83291 l -0.586347,-3.15775 -1.021451,-0.089 c -1.816519,-0.15832 -3.314259,-1.21925 -3.743419,-2.65166 -0.260879,-0.87073 -0.236616,-21.365017 0.02613,-22.074367 0.59037,-1.59383 2.292358,-2.57455 4.472033,-2.57688 l 1.444711,-0.002 0.177278,-0.74996 c 0.0975,-0.41248 0.348854,-1.81571 0.558557,-3.11828 0.951157,-5.908097 1.132955,-6.764337 1.656214,-7.800478 0.997868,-1.975948 2.943485,-3.365686 5.105051,-3.646497 1.550289,-0.2014 136.684377,-0.19942 138.235747,0.002 2.24798,0.291901 4.22521,1.743299 5.1847,3.805858 0.38797,0.834007 0.8444,3.125364 1.71039,8.586416 0.50686,3.196326 0.31519,2.920626 2.03174,2.922456 2.17846,0.002 3.88065,0.98342 4.47088,2.57688 0.26275,0.70935 0.28702,21.203642 0.0261,22.074372 -0.43054,1.43702 -1.92723,2.4941 -3.7544,2.65166 -0.75372,0.065 -1.04014,0.15296 -1.06099,0.32585 -0.0157,0.13026 -0.21754,1.30258 -0.44851,2.60515 -1.64046,9.25138 -4.87411,17.80273 -9.91093,26.20931 -1.55542,2.59603 -4.41463,6.74633 -5.94334,8.62707 -0.39814,0.48983 -0.93704,1.15848 -1.19756,1.48591 -1.54554,1.94249 -2.61144,3.09287 -6.07071,6.55178 -5.02831,5.02779 -9.64023,8.66477 -16.11247,12.70637 -1.81194,1.13147 -6.61147,3.66175 -8.36804,4.41156 -0.47761,0.20388 -1.4723,0.63125 -2.21042,0.94972 -6.28407,2.71128 -14.35281,4.79593 -21.0802,5.44629 -1.84985,0.17884 -8.21056,0.32391 -9.7868,0.22322 z m 10.736347,-6.13414 c 2.05926,-0.25455 6.66035,-1.08786 6.80493,-1.23244 0.0493,-0.0493 -0.0659,-0.43295 -0.25599,-0.85265 -2.61932,-5.78422 -3.38483,-13.61727 -1.96237,-20.07962 2.99712,-13.61608 13.63789,-23.76016 27.6367,-26.34668 3.27196,-0.60456 8.37625,-0.6381 11.45128,-0.0753 3.02341,0.55339 5.13533,1.12532 7.24198,1.96119 1.37505,0.54559 4.84524,2.24341 5.2045,2.54635 0.13464,0.11353 0.63006,0.43831 1.10095,0.72175 l 0.85615,0.51534 0.28502,-0.37055 c 0.15676,-0.20381 0.28749,-0.44161 0.29053,-0.52844 0.003,-0.0868 0.21137,-0.56379 0.46299,-1.05989 0.25162,-0.49609 0.54408,-1.17106 0.64991,-1.49993 0.10584,-0.32886 0.28918,-0.77556 0.40742,-0.99265 0.44522,-0.81742 1.95828,-5.1599 2.61313,-7.49965 0.80668,-2.88225 1.69367,-7.09331 1.70438,-8.09174 l 0.006,-0.51313 -15.90716,-4e-4 -15.90716,-4e-4 -1.43905,-0.38554 c -3.70162,-0.99172 -6.53279,-3.7397 -7.75515,-7.52726 -0.42088,-1.30415 -0.42698,-1.38409 -0.43192,-5.664717 -0.005,-4.32504 -0.003,-4.3473 0.43686,-5.73195 1.17603,-3.69962 3.57349,-6.15578 7.29461,-7.47321 l 1.2631,-0.44719 15.63086,-0.0814 15.63086,-0.0814 -0.0501,-0.47366 c -0.0276,-0.26052 -0.11399,-0.72234 -0.19203,-1.02627 -0.078,-0.30394 -0.25107,-1.29863 -0.38452,-2.210427 -0.51239,-3.500877 -0.90469,-5.278293 -1.22839,-5.565532 -0.48473,-0.430116 -137.108065,-0.430116 -137.610461,0 -0.335281,0.287044 -0.698453,1.893995 -1.205639,5.334675 -0.128491,0.871666 -0.342388,2.101914 -0.475326,2.733884 -0.132939,0.63196 -0.241707,1.17792 -0.241707,1.21324 0,0.0353 7.051648,0.0849 15.670329,0.11016 l 15.670329,0.0459 1.2631,0.44759 c 3.679673,1.3039 6.053355,3.71026 7.286288,7.38658 l 0.442414,1.31918 -1.55e-4,4.42085 c -1.52e-4,4.376047 -0.0045,4.434247 -0.428029,5.743657 -0.631308,1.95174 -1.418979,3.23737 -2.869362,4.68334 -1.522737,1.51811 -2.874556,2.30482 -4.886749,2.84392 l -1.439057,0.38554 -15.927553,4e-4 -15.927554,4e-4 0.107863,0.9868 c 0.1466,1.34117 1.01188,5.28272 1.741702,7.93384 0.608963,2.2121 2.345066,7.10275 2.631431,7.41282 0.07619,0.0825 0.138527,0.2479 0.138527,0.36758 0,0.33399 1.107717,2.56123 1.273828,2.56123 0.08062,0 0.979181,-0.43121 1.996802,-0.95825 3.218116,-1.66668 6.276291,-2.70289 10.070859,-3.4123 3.424949,-0.64032 8.491156,-0.64588 11.920502,-0.0131 3.387779,0.62512 6.407409,1.60091 9.139692,2.95348 2.485424,1.23037 2.893321,1.46905 5.070179,2.96687 2.593159,1.78426 6.070575,5.24821 7.860001,7.82956 2.552858,3.68265 4.01656,6.73666 5.159054,10.76437 0.822358,2.89911 1.103412,5.15808 1.100057,8.84169 -0.0041,4.51664 -0.556452,7.62403 -2.113884,11.89248 -0.263694,0.72271 -0.479445,1.36365 -0.479445,1.42432 0,0.46324 7.488177,1.79063 12.07839,2.14106 1.736924,0.13261 9.721104,-0.0714 11.525784,-0.29446 z m 14.29807,-3.4111 c 11.37541,-4.13078 21.25818,-10.60542 29.96811,-19.63344 2.3334,-2.41861 5.16408,-5.75716 6.57534,-7.75506 0.4273,-0.60492 0.82075,-1.13539 0.87431,-1.17881 0.16188,-0.13121 3.08736,-4.61998 3.36634,-5.16522 l 0.2597,-0.50754 -1.17708,-0.79428 c -6.68362,-4.51006 -15.33899,-5.92494 -23.37674,-3.82136 -3.89096,1.01832 -7.77013,2.97129 -10.7184,5.39618 -1.47553,1.2136 -4.02213,3.85665 -4.87182,5.05635 -0.15133,0.21366 -0.55587,0.78597 -0.89898,1.2718 -2.03267,2.87817 -3.93038,7.77251 -4.42168,11.40385 -0.21522,1.59078 -0.21544,6.19937 -3.7e-4,7.79258 0.40772,3.02035 2.25775,8.41893 2.88507,8.41893 0.11187,0 0.80316,-0.21779 1.5362,-0.48398 z m -43.262255,-0.89753 c 0.515694,-1.14183 1.356956,-3.64489 1.552152,-4.61821 0.09578,-0.47761 0.295056,-1.4723 0.442828,-2.21043 0.191316,-0.95562 0.267439,-2.11487 0.264377,-4.02613 -0.01403,-8.75806 -3.997225,-16.71984 -11.109216,-22.20556 -7.556202,-5.82835 -17.981705,-7.45231 -27.142503,-4.22794 -1.599189,0.56287 -5.546367,2.50381 -5.652074,2.77927 -0.144344,0.37616 3.304897,5.70222 5.860684,9.04965 3.335025,4.36802 9.976531,11.15528 13.527111,13.82398 0.224603,0.16882 1.110279,0.83981 1.968169,1.4911 0.85789,0.65128 1.713746,1.29073 1.901902,1.42098 3.672774,2.5426 5.677318,3.76434 9.378824,5.71627 2.060982,1.08682 8.084222,3.72704 8.558005,3.7513 0.06106,0.003 0.263448,-0.3318 0.449741,-0.74428 z m -32.413086,-72.707167 0.04095,-7.8549 H 37.705567 26.178309 v 7.78911 c 0,4.284007 0.04783,7.836947 0.106289,7.895397 0.05846,0.0585 5.227299,0.0881 11.486312,0.0658 l 11.380023,-0.0405 z m 14.8902,7.323647 c 1.128275,-0.59025 1.804918,-1.26469 2.46719,-2.45916 l 0.442945,-0.79889 v -4.026127 c 0,-3.94862 -0.0074,-4.0412 -0.385116,-4.8087 -0.52412,-1.06504 -1.291011,-1.8764 -2.354802,-2.49137 l -0.891493,-0.51536 -4.223489,-0.0489 -4.223489,-0.0489 v 7.79853 c 0,4.289197 0.05259,7.851117 0.116866,7.915397 0.06428,0.0643 1.898649,0.0939 4.076384,0.0658 l 3.959518,-0.0511 z m 87.420871,-7.333077 0.041,-7.86433 -4.22497,0.0489 -4.22497,0.0489 -0.89149,0.51536 c -1.06379,0.61497 -1.83068,1.42633 -2.3548,2.49137 -0.3777,0.7675 -0.38512,0.86008 -0.38512,4.8087 v 4.026127 l 0.4489,0.80982 c 0.56821,1.02508 1.13135,1.64159 2.01254,2.20327 1.1866,0.75636 1.7866,0.83939 5.82765,0.80645 l 3.71036,-0.0302 z m 28.73551,0.009 0.041,-7.8549 h -11.52731 -11.52726 v 7.78911 c 0,4.284007 0.0478,7.836947 0.10629,7.895397 0.0585,0.0585 5.2273,0.0881 11.48631,0.0658 l 11.38002,-0.0405 z"
       id="path1" /></g></svg>
